<?xml version="1.0" encoding="UTF-8"?>
<svg width="16px" height="16px" viewBox="0 0 16 16" version="1.1" xmlns="http://www.w3.org/2000/svg" xmlns:xlink="http://www.w3.org/1999/xlink">
    <title>close</title>
    <g id="RightSide" stroke="none" stroke-width="1" fill="none" fill-rule="evenodd">
        <g id="Popup#1" transform="translate(-16.000000, -47.000000)" fill="#000000" fill-rule="nonzero">
            <g id="关闭" transform="translate(0.000000, 39.000000)">
                <g id="close" transform="translate(16.000000, 8.000000)">
                    <rect id="矩形" opacity="0" x="0" y="0" width="16" height="16"></rect>
                    <path d="M12.8513538,12.1443734 L12.8517057,12.1440214 L3.853672,3.14656685 C3.76318193,3.0560125 3.63813414,3 3.5,3 C3.22385731,3 3,3.22385803 3,3.5 C3,3.63812017 3.05601233,3.76316838 3.14655039,3.85365873 L12.1338648,12.840378 C12.2251548,12.9385318 12.3553543,13 12.4999688,13 C12.7761107,13 12.999968,12.776142 12.999968,12.5 C12.999968,12.3608399 12.9430917,12.2350237 12.8513538,12.1443734 Z M12.1443601,3.14861472 L12.1440082,3.14826274 L3.14658238,12.1463253 C3.05602832,12.2368156 3.00001599,12.3618638 3.00001599,12.5 C3.00001599,12.776142 3.2238733,13 3.50001599,13 C3.63813412,13 3.76318193,12.9439875 3.853672,12.8534491 L12.8403785,3.86610595 C12.938532,3.77481565 13,3.64461578 13,3.5 C13,3.22385803 12.7761427,3 12.5000008,3 C12.3608259,3 12.2349942,3.05687644 12.1443601,3.14861472 Z" id="形状"></path>
                </g>
            </g>
        </g>
    </g>
</svg>