<?xml version="1.0" standalone="no"?><!DOCTYPE svg PUBLIC "-//W3C//DTD SVG 1.1//EN" "http://www.w3.org/Graphics/SVG/1.1/DTD/svg11.dtd"><svg t="1598445895665" class="icon" viewBox="0 0 1024 1024" version="1.1" xmlns="http://www.w3.org/2000/svg" p-id="1897" xmlns:xlink="http://www.w3.org/1999/xlink" width="200" height="200"><defs><style type="text/css"></style></defs><path d="M382.4 514.4c0 69.6 57.6 127.2 127.2 127.2S636.8 584 636.8 514.4s-57.6-127.2-127.2-127.2-127.2 57.6-127.2 127.2z" fill="#BBBBBB" p-id="1898"></path><path d="M509.6 320h400.8C838.4 171.2 687.2 70.4 512 70.4c-127.2 0-242.4 52.8-321.6 139.2l136.8 240C353.6 375.2 425.6 320 509.6 320z" fill="#F75B60" p-id="1899"></path><path d="M548 704c-12 2.4-26.4 4.8-38.4 4.8-69.6 0-129.6-36-163.2-88.8L144.8 267.2c-48 69.6-74.4 153.6-74.4 244.8 0 213.6 151.2 391.2 352.8 432l-9.6-4.8L548 704z" fill="#00D19C" p-id="1900"></path><path d="M934.4 387.2H656c28.8 33.6 48 79.2 48 127.2 0 38.4-9.6 72-28.8 103.2l-194.4 336c9.6 0 21.6 2.4 31.2 2.4 244.8 0 441.6-196.8 441.6-441.6 0-45.6-7.2-88.8-19.2-127.2z" fill="#FCA253" p-id="1901"></path></svg>