<?xml version="1.0" encoding="UTF-8"?>
<svg width="25px" height="18px" viewBox="0 0 25 18" version="1.1" xmlns="http://www.w3.org/2000/svg" xmlns:xlink="http://www.w3.org/1999/xlink">
    <title>folder-open</title>
    <g id="Page" stroke="none" stroke-width="1" fill="none" fill-rule="evenodd">
        <g id="folder-open" transform="translate(-14.000000, -10.000000)" fill-rule="nonzero">
            <g transform="translate(14.000000, 10.000000)" id="路径">
                <path d="M20.967068,2.99050633 C20.7184466,2.77689873 20.4076699,2.67009494 20.0968932,2.67009494 L10.3592233,2.67009494 L7.62438835,0.320411392 C7.52079612,0.231408228 7.37576699,0.142405063 7.23073786,0.0890031646 C7.06499029,0.0356012658 6.91996117,0 6.75421359,0 L1.2431068,0 C0.932330097,0 0.600834951,0.106803797 0.372932039,0.320411392 C0.145029126,0.534018987 0,0.801028481 0,1.06803797 L0,16.9106013 C0,17.1776108 0.12431068,17.4624209 0.372932039,17.6582278 C0.621553398,17.8540348 0.932330097,17.9786392 1.2431068,17.9786392 L20.0968932,17.9786392 C20.4076699,17.9786392 20.739165,17.8718354 20.967068,17.6582278 C21.2156893,17.4446203 21.34,17.1776108 21.34,16.9106013 L21.34,3.73813291 C21.34,3.47112342 21.2156893,3.18631329 20.967068,2.99050633 Z" fill="#FFD766"></path>
                <path d="M21.2351798,17.213212 C21.1528465,17.4268196 21.0087632,17.6226266 20.7823465,17.7650316 C20.5559298,17.9074367 20.3089298,17.9786392 20.0413465,17.9786392 L1.43401316,17.9786392 C1.06351316,17.9786392 0.693013158,17.8362342 0.446013158,17.5514241 C0.199013158,17.2666139 0.137263158,16.9106013 0.260763158,16.6079905 L3.84226316,6.28362342 C3.92459649,6.07001582 4.06867982,5.87420886 4.29509649,5.7318038 C4.52151316,5.58939873 4.76851316,5.5181962 5.03609649,5.5181962 L23.6640132,5.5181962 C24.0345132,5.5181962 24.4050132,5.66060127 24.6520132,5.94541139 C24.8990132,6.23022152 24.9607632,6.58623418 24.8372632,6.88884494 L21.2351798,17.213212 L21.2351798,17.213212 Z" fill="#FAAD14"></path>
            </g>
        </g>
    </g>
</svg>