<?xml version="1.0" encoding="UTF-8"?>
<svg width="22px" height="18px" viewBox="0 0 22 18" version="1.1" xmlns="http://www.w3.org/2000/svg" xmlns:xlink="http://www.w3.org/1999/xlink">
    <title>folder</title>
    <g id="Page" stroke="none" stroke-width="1" fill="none" fill-rule="evenodd">
        <g id="Folder" transform="translate(-14.000000, -7.000000)" fill-rule="nonzero">
            <g id="folder" transform="translate(14.000000, 7.000000)">
                <path d="M21.0229388,2.99050633 C20.809508,2.77689873 20.5427194,2.67009494 20.2759309,2.67009494 L9.78224734,2.67009494 L7.43450798,0.320411392 C7.34557846,0.231408228 7.22107713,0.142405063 7.0965758,0.0890031646 C6.95428856,0.0356012658 6.82978723,0 6.6875,0 L1.06715426,0 C0.800365691,0 0.515791223,0.106803797 0.320146277,0.320411392 C0.12450133,0.534018987 0,0.801028481 0,1.06803797 L0,7.29825949 L21.3430851,7.29825949 L21.3430851,3.73813291 C21.3430851,3.47112342 21.2363697,3.18631329 21.0229388,2.99050633 Z" id="路径" fill="#FFD766"></path>
                <path d="M20.2759309,17.9786392 L1.06715426,17.9786392 C0.480219415,17.9786392 0,17.4980222 0,16.9106013 L0,5.5181962 L21.3430851,5.5181962 L21.3430851,16.9106013 C21.3430851,17.4980222 20.8628657,17.9786392 20.2759309,17.9786392 Z" id="路径" fill="#FFC53D"></path>
            </g>
        </g>
    </g>
</svg>