<?xml version="1.0" standalone="no"?>
<!DOCTYPE svg PUBLIC "-//W3C//DTD SVG 1.1//EN" "http://www.w3.org/Graphics/SVG/1.1/DTD/svg11.dtd">
<svg t="1619612277117" class="icon" viewBox="0 0 100 100" version="1.1" xmlns="http://www.w3.org/2000/svg" p-id="20958" xmlns:xlink="http://www.w3.org/1999/xlink" width="100" height="100">
<defs>
<style type="text/css"></style>
</defs>
  <path id="svg_19" d="m48.09862,-0.076279l-0.21201,24.723799c0.071167,0.064565 0.21201,27.247259 27.113018,27.247259c26.901009,0 36.337488,0 36.26632,-0.064565c0.071168,0.064565 -7.111824,-4.160724 -7.182992,-4.22529c0.071168,0.064566 -2.041476,0.346252 -2.112645,0.281686c0.071169,0.064566 -26.970683,0.064566 -27.04185,0c0.071167,0.064566 -22.182023,-0.21712 -22.886238,-23.597054c-0.704215,-23.379934 0.42104,-28.579409 -0.212009,-31.331705c-0.633049,-2.752296 -3.449908,-0.217122 -3.521075,-0.140843c0.071167,-0.076279 -0.210519,3.444796 -0.210519,7.106713z"/>
</svg>
