<?xml version="1.0" standalone="no"?>
<!DOCTYPE svg PUBLIC "-//W3C//DTD SVG 1.1//EN" "http://www.w3.org/Graphics/SVG/1.1/DTD/svg11.dtd">
<svg t="1619612277117" class="icon" viewBox="0 0 100 100" version="1.1" xmlns="http://www.w3.org/2000/svg" p-id="20958" xmlns:xlink="http://www.w3.org/1999/xlink" width="100" height="100">
<defs>
<style type="text/css"></style>
</defs>
  <path id="svg_14" d="m48.01766,0.07215c-0.00001,3.82165 0.31847,100.95542 0.23886,100.88327c0.07961,0.07215 4.21974,-0.08708 4.14012,-0.15924c0.07962,0.07216 -0.07961,-43.87689 -0.15923,-43.94904c0.07962,0.07215 0.23885,-4.70492 5.01592,-4.70492c4.77707,0 44.74522,0 44.66561,-0.07215c0.07961,0.07215 -1.19427,-3.90874 -1.27389,-3.98089c0.07962,0.07215 -43.39172,0.07215 -43.47134,0c0.07962,0.07215 -4.69745,-0.08709 -4.69745,-4.70492c0,-4.61783 -0.31847,-45.22293 -0.39809,-45.13585c0.07962,-0.08708 -4.0605,-1.99791 -4.06051,1.82374z"/>
</svg>